<!DOCTYPE svg PUBLIC "-//W3C//DTD SVG 1.1//EN" "http://www.w3.org/Graphics/SVG/1.1/DTD/svg11.dtd">

<!-- Uploaded to: SVG Repo, www.svgrepo.com, Transformed by: SVG Repo Mixer Tools -->
<svg fill="#FFFFFF" version="1.1" id="Capa_1" xmlns="http://www.w3.org/2000/svg" xmlns:xlink="http://www.w3.org/1999/xlink" width="800px" height="800px" viewBox="0 0 52.59 52.59" xml:space="preserve" stroke="#FFFFF">

<g id="SVGRepo_bgCarrier" stroke-width="0"/>

<g id="SVGRepo_tracerCarrier" stroke-linecap="round" stroke-linejoin="round"/>

<g id="SVGRepo_iconCarrier"> <g> <g> <path d="M26.387,22.58l-0.092-0.082l-0.092,0.082C26.265,22.573,26.324,22.573,26.387,22.58z"/> <path d="M33.925,27.582h-0.692l-1.059-2.261c-0.051-0.635-0.583-1.136-1.23-1.136h-9.111c-0.648,0-1.18,0.501-1.231,1.136 l-1.057,2.261H18.85c-0.681,0-1.235,0.555-1.235,1.234v4.598c0,0.682,0.554,1.234,1.235,1.234h0.206v0.892 c0,0.681,0.554,1.235,1.235,1.235h1.286c0.681,0,1.235-0.555,1.235-1.235v-0.892h7.002v0.892c0,0.681,0.555,1.235,1.235,1.235 h1.287c0.681,0,1.235-0.555,1.235-1.235v-0.892h0.354c0.681,0,1.235-0.555,1.235-1.234v-4.598 C35.16,28.135,34.607,27.582,33.925,27.582z M21.618,31.65c-0.169,0.216-0.418,0.34-0.685,0.34c-0.482,0-0.875-0.393-0.875-0.875 s0.392-0.875,0.875-0.875c0.241,0,0.466,0.099,0.634,0.275c0.155,0.166,0.241,0.379,0.241,0.6 C21.808,31.355,21.705,31.54,21.618,31.65z M20.452,27.582l0.967-2.069v-0.092c0-0.227,0.185-0.411,0.412-0.411h9.112 c0.227,0,0.412,0.185,0.412,0.411v0.092l0.967,2.069H20.452z M31.691,31.99c-0.267,0-0.516-0.124-0.685-0.34 c-0.086-0.11-0.19-0.295-0.19-0.535c0-0.221,0.086-0.434,0.24-0.598c0.168-0.18,0.395-0.277,0.635-0.277 c0.482,0,0.875,0.393,0.875,0.875S32.174,31.99,31.691,31.99z"/> <path d="M32.763,11.597c0-0.438-0.356-0.796-0.795-0.796H20.622c-0.438,0-0.795,0.357-0.795,0.796v6.505h12.937L32.763,11.597 L32.763,11.597z"/> <path d="M26.295,0C11.773,0,0,11.772,0,26.295C0,40.818,11.773,52.59,26.295,52.59c14.521,0,26.295-11.771,26.295-26.295 C52.59,11.772,40.816,0,26.295,0z M38.564,40.146c0,1.379-1.117,2.496-2.496,2.496H16.519c-1.378,0-2.495-1.117-2.495-2.496 V20.597c0-1.378,1.117-2.495,2.495-2.495h0.812v-6.505c0-1.814,1.476-3.291,3.291-3.291h11.345c1.814,0,3.291,1.477,3.291,3.291 v6.505h0.812c1.377,0,2.494,1.117,2.494,2.495V40.146L38.564,40.146z"/> </g> </g> </g>

</svg>